<?xml version="1.0" standalone="no"?>
<!DOCTYPE svg PUBLIC "-//W3C//DTD SVG 20010904//EN"
 "http://www.w3.org/TR/2001/REC-SVG-20010904/DTD/svg10.dtd">
<svg version="1.0" xmlns="http://www.w3.org/2000/svg"
 width="145.000000pt" height="150.000000pt" viewBox="0 0 145.000000 150.000000"
 preserveAspectRatio="xMidYMid meet">

<g transform="translate(0.000000,150.000000) scale(0.100000,-0.100000)"
fill="#000000" stroke="none">
<path d="M1073 1488 c-5 -7 -88 -153 -183 -325 -168 -304 -174 -312 -200 -306
-19 3 -116 -28 -331 -107 -167 -61 -314 -118 -326 -126 -22 -14 -23 -21 -23
-143 0 -109 3 -130 18 -143 15 -14 649 -307 714 -330 25 -9 57 6 325 152 164
89 306 170 317 179 17 15 18 26 12 134 -3 65 -10 126 -16 137 -6 12 -63 36
-174 73 l-164 55 -42 -46 -42 -47 106 -35 c58 -19 106 -37 106 -40 0 -3 -28
-20 -63 -38 l-62 -33 -80 31 c-44 16 -84 30 -90 29 -5 0 -20 -13 -33 -29 l-22
-29 60 -22 c33 -12 60 -24 60 -28 0 -3 -41 -27 -91 -53 l-91 -48 -268 112
c-148 62 -267 114 -266 116 2 1 50 21 107 42 l103 40 69 -28 c68 -27 70 -30
53 -73 -10 -22 42 -46 59 -27 15 16 543 881 551 902 7 19 -39 66 -64 66 -11 0
-24 -6 -29 -12z m-443 -791 c-20 -33 -23 -35 -48 -25 -46 20 -45 24 10 45 29
11 54 19 56 18 2 -1 -7 -19 -18 -38z"/>
<path d="M1346 1277 c-17 -18 -72 -77 -122 -132 -331 -365 -316 -350 -354
-348 -33 3 -37 -1 -60 -42 -20 -37 -22 -47 -11 -54 11 -7 7 -16 -19 -45 -18
-20 -39 -36 -47 -36 -7 0 -13 -3 -13 -7 0 -5 -18 -32 -41 -62 -22 -29 -39 -54
-37 -55 2 -1 13 -10 26 -20 l22 -19 380 384 c209 211 380 391 380 399 0 24
-27 57 -51 63 -16 4 -30 -3 -53 -26z"/>
</g>
</svg>
