<?xml version="1.0" encoding="UTF-8"?>
<svg xmlns="http://www.w3.org/2000/svg" xmlns:xlink="http://www.w3.org/1999/xlink" width="1280px" height="611px" viewBox="0 0 720 344" version="1.1">
<g id="surface1">
<path style=" stroke:none;fill-rule:nonzero;fill:rgb(0%,0%,0%);fill-opacity:1;" d="M 387.976562 0.902344 C 387.601562 1.425781 381.375 12.382812 374.25 25.289062 C 361.648438 48.101562 361.199219 48.703125 359.25 48.253906 C 357.824219 48.027344 350.550781 50.355469 334.425781 56.28125 C 321.898438 60.859375 310.875 65.136719 309.976562 65.738281 C 308.324219 66.789062 308.25 67.3125 308.25 76.46875 C 308.25 84.648438 308.476562 86.226562 309.601562 87.199219 C 310.726562 88.25 358.273438 110.238281 363.148438 111.964844 C 365.023438 112.640625 367.425781 111.515625 387.523438 100.558594 C 399.824219 93.878906 410.476562 87.800781 411.300781 87.125 C 412.574219 86 412.648438 85.175781 412.199219 77.070312 C 411.976562 72.191406 411.449219 67.613281 411 66.789062 C 410.550781 65.886719 406.273438 64.085938 397.949219 61.3125 L 385.648438 57.183594 L 382.5 60.636719 L 379.351562 64.164062 L 387.300781 66.789062 C 391.648438 68.214844 395.25 69.566406 395.25 69.789062 C 395.25 70.015625 393.148438 71.292969 390.523438 72.640625 L 385.875 75.117188 L 379.875 72.792969 C 376.574219 71.589844 373.574219 70.539062 373.125 70.617188 C 372.75 70.617188 371.625 71.589844 370.648438 72.792969 L 369 74.96875 L 373.5 76.621094 C 375.976562 77.519531 378 78.421875 378 78.722656 C 378 78.945312 374.925781 80.746094 371.175781 82.699219 L 364.351562 86.300781 L 344.25 77.894531 C 333.148438 73.242188 324.226562 69.339844 324.300781 69.191406 C 324.449219 69.113281 328.050781 67.613281 332.324219 66.039062 L 340.050781 63.035156 L 345.226562 65.136719 C 350.324219 67.164062 350.476562 67.390625 349.199219 70.617188 C 348.449219 72.265625 352.351562 74.066406 353.625 72.640625 C 354.75 71.441406 394.351562 6.527344 394.949219 4.953125 C 395.476562 3.527344 392.023438 0 390.148438 0 C 389.324219 0 388.351562 0.449219 387.976562 0.902344 Z M 354.75 60.261719 C 353.25 62.738281 353.023438 62.886719 351.148438 62.136719 C 347.699219 60.636719 347.773438 60.335938 351.898438 58.757812 C 354.074219 57.933594 355.949219 57.332031 356.101562 57.410156 C 356.25 57.484375 355.574219 58.835938 354.75 60.261719 Z M 354.75 60.261719 "/>
<path style=" stroke:none;fill-rule:nonzero;fill:rgb(0%,0%,0%);fill-opacity:1;" d="M 408.449219 16.734375 C 407.175781 18.085938 403.050781 22.511719 399.300781 26.640625 C 374.476562 54.03125 375.601562 52.90625 372.75 52.753906 C 370.273438 52.53125 369.976562 52.832031 368.25 55.90625 C 366.75 58.683594 366.601562 59.433594 367.425781 59.960938 C 368.25 60.484375 367.949219 61.160156 366 63.335938 C 364.648438 64.835938 363.074219 66.039062 362.476562 66.039062 C 361.949219 66.039062 361.5 66.261719 361.5 66.5625 C 361.5 66.9375 360.148438 68.964844 358.425781 71.214844 C 356.773438 73.394531 355.5 75.269531 355.648438 75.34375 C 355.800781 75.417969 356.625 76.09375 357.601562 76.84375 L 359.25 78.269531 L 387.75 49.453125 C 403.425781 33.621094 416.25 20.113281 416.25 19.511719 C 416.25 17.710938 414.226562 15.234375 412.425781 14.785156 C 411.226562 14.484375 410.175781 15.007812 408.449219 16.734375 Z M 408.449219 16.734375 "/>
<path style=" stroke:none;fill-rule:nonzero;fill:rgb(0%,0%,0%);fill-opacity:1;" d="M 90 95.679688 L 90 101.308594 L 292.5 101.308594 L 292.5 90.050781 L 90 90.050781 Z M 90 95.679688 "/>
<path style=" stroke:none;fill-rule:nonzero;fill:rgb(0%,0%,0%);fill-opacity:1;" d="M 427.5 95.679688 L 427.5 101.308594 L 630 101.308594 L 630 90.050781 L 427.5 90.050781 Z M 427.5 95.679688 "/>
<path style=" stroke:none;fill-rule:nonzero;fill:rgb(0%,0%,0%);fill-opacity:1;" d="M 0 213.875 L 0 303.925781 L 720 303.925781 L 720 123.820312 L 0 123.820312 Z M 708.75 213.875 L 708.75 292.671875 L 11.25 292.671875 L 11.25 135.078125 L 708.75 135.078125 Z M 708.75 213.875 "/>
<path style=" stroke:none;fill-rule:nonzero;fill:rgb(0%,0%,0%);fill-opacity:1;" d="M 366 200.441406 L 366 209.523438 L 363.75 207.644531 C 359.25 203.820312 352.648438 204.117188 347.925781 208.394531 C 344.476562 211.472656 343.199219 214.925781 343.273438 221.152344 C 343.351562 229.785156 347.699219 235.5625 354.824219 236.238281 C 359.398438 236.6875 361.574219 236.085938 364.425781 233.6875 L 366.75 231.734375 L 366.75 234.0625 C 366.75 236.3125 366.824219 236.386719 370.125 236.386719 L 373.5 236.386719 L 373.5 191.359375 L 366 191.359375 Z M 363.148438 212.375 C 367.875 216.050781 367.199219 227.457031 362.175781 230.007812 C 355.5 233.460938 349.273438 227.382812 350.625 218.675781 C 351.601562 211.847656 358.273438 208.472656 363.148438 212.375 Z M 363.148438 212.375 "/>
<path style=" stroke:none;fill-rule:nonzero;fill:rgb(0%,0%,0%);fill-opacity:1;" d="M 477.75 213.875 L 477.75 236.386719 L 484.5 236.386719 L 484.5 191.359375 L 477.75 191.359375 Z M 477.75 213.875 "/>
<path style=" stroke:none;fill-rule:nonzero;fill:rgb(0%,0%,0%);fill-opacity:1;" d="M 492.75 195.113281 L 492.75 198.867188 L 501 198.867188 L 501 191.359375 L 492.75 191.359375 Z M 492.75 195.113281 "/>
<path style=" stroke:none;fill-rule:nonzero;fill:rgb(0%,0%,0%);fill-opacity:1;" d="M 94.5 214.625 L 94.5 236.539062 L 107.101562 236.238281 C 120.824219 236.011719 123.976562 235.1875 126.976562 231.058594 C 130.351562 226.40625 128.925781 218.976562 124.050781 215.75 L 121.726562 214.175781 L 124.351562 211.921875 C 126.75 209.898438 127.050781 209.222656 127.273438 205.246094 C 127.648438 199.765625 126.074219 196.839844 121.800781 194.664062 C 119.324219 193.460938 116.851562 193.238281 106.726562 193.011719 L 94.5 192.710938 Z M 119.023438 201.417969 C 120.449219 203.144531 120.75 204.117188 120.449219 205.917969 C 119.550781 210.347656 117.824219 211.246094 109.5 211.472656 L 102 211.773438 L 102 198.714844 L 109.574219 199.015625 C 116.851562 199.242188 117.226562 199.316406 119.023438 201.417969 Z M 120.074219 219.804688 C 120.824219 220.777344 121.5 222.65625 121.5 224.003906 C 121.5 225.355469 120.824219 227.230469 120.074219 228.207031 C 118.726562 229.859375 117.976562 230.007812 110.324219 230.234375 L 102 230.535156 L 102 217.476562 L 110.324219 217.777344 C 117.976562 218 118.726562 218.152344 120.074219 219.804688 Z M 120.074219 219.804688 "/>
<path style=" stroke:none;fill-rule:nonzero;fill:rgb(0%,0%,0%);fill-opacity:1;" d="M 239.25 214.625 L 239.25 236.386719 L 246.75 236.386719 L 246.75 217.625 L 266.25 217.625 L 266.25 211.621094 L 246.675781 211.621094 L 246.898438 205.394531 L 247.125 199.242188 L 257.476562 199.015625 L 267.75 198.789062 L 267.75 192.863281 L 239.25 192.863281 Z M 239.25 214.625 "/>
<path style=" stroke:none;fill-rule:nonzero;fill:rgb(0%,0%,0%);fill-opacity:1;" d="M 399 214.625 L 399 236.386719 L 408.375 236.386719 C 419.625 236.386719 424.125 235.488281 428.851562 232.410156 C 431.476562 230.609375 432.976562 228.808594 434.625 225.507812 C 436.574219 221.527344 436.875 220.179688 436.875 214.625 C 436.875 209.070312 436.574219 207.722656 434.625 203.742188 C 432.976562 200.441406 431.476562 198.640625 428.851562 196.839844 C 424.125 193.761719 419.625 192.863281 408.375 192.863281 L 399 192.863281 Z M 422.925781 201.191406 C 427.351562 203.667969 429.300781 207.722656 429.300781 214.625 C 429.226562 221.003906 428.175781 223.855469 424.5 226.933594 C 421.5 229.410156 419.476562 229.933594 412.5 229.933594 L 406.875 230.007812 L 406.800781 215 C 406.800781 206.746094 406.875 199.691406 407.101562 199.316406 C 407.773438 198.039062 419.851562 199.464844 422.925781 201.191406 Z M 422.925781 201.191406 "/>
<path style=" stroke:none;fill-rule:nonzero;fill:rgb(0%,0%,0%);fill-opacity:1;" d="M 204.226562 197.140625 C 201 198.265625 201 198.265625 201 201.941406 L 201 205.621094 L 198.375 205.621094 C 195.824219 205.621094 195.75 205.695312 195.75 208.472656 C 195.75 211.246094 195.824219 211.398438 198.226562 211.324219 L 200.625 211.246094 L 201 220.253906 C 201.601562 233.386719 203.773438 236.386719 212.625 236.386719 L 216.75 236.386719 L 216.75 233.386719 C 216.75 230.382812 216.75 230.382812 213.75 230.382812 C 209.175781 230.382812 208.425781 228.582031 208.648438 219.050781 L 208.875 211.246094 L 212.851562 211.246094 L 216.75 211.324219 L 216.75 205.621094 L 208.5 205.621094 L 208.5 200.742188 C 208.5 198.039062 208.273438 195.863281 207.976562 195.9375 C 207.601562 195.9375 205.949219 196.464844 204.226562 197.140625 Z M 204.226562 197.140625 "/>
<path style=" stroke:none;fill-rule:nonzero;fill:rgb(0%,0%,0%);fill-opacity:1;" d="M 144.601562 205.621094 C 136.800781 207.945312 132.601562 218.226562 135.675781 227.457031 C 138 234.511719 147.523438 238.1875 156.75 235.636719 C 161.324219 234.359375 162.148438 233.386719 161.175781 230.535156 C 160.726562 229.257812 160.273438 228.132812 160.199219 228.132812 C 160.050781 228.132812 158.925781 228.65625 157.574219 229.332031 C 151.5 232.410156 144.824219 230.984375 142.875 226.332031 C 140.773438 221.304688 140.625 221.378906 152.25 221.378906 L 162.75 221.378906 L 162.75 218.902344 C 162.675781 215.824219 161.023438 211.246094 159.226562 209.222656 C 156.148438 205.695312 149.625 204.117188 144.601562 205.621094 Z M 153.824219 212.296875 C 155.023438 213.5 156 215.226562 156 216.050781 C 156 217.550781 155.550781 217.625 149.398438 217.625 C 145.726562 217.625 142.574219 217.402344 142.273438 217.175781 C 141.601562 216.425781 143.773438 212.597656 145.648438 211.324219 C 148.273438 209.445312 151.351562 209.820312 153.824219 212.296875 Z M 153.824219 212.296875 "/>
<path style=" stroke:none;fill-rule:nonzero;fill:rgb(0%,0%,0%);fill-opacity:1;" d="M 175.273438 205.917969 C 171.601562 207.269531 170.25 208.472656 168.976562 211.546875 C 166.800781 216.726562 169.949219 221.230469 177.148438 222.878906 C 183.976562 224.53125 186 225.582031 186 227.683594 C 186 228.808594 185.398438 229.933594 184.574219 230.382812 C 182.175781 231.585938 176.175781 231.210938 172.5 229.558594 C 169.351562 228.132812 169.125 228.132812 168.226562 229.332031 C 166.800781 231.285156 166.949219 231.660156 170.324219 233.910156 C 172.800781 235.5625 174.601562 236.011719 178.5 236.238281 C 184.800781 236.613281 188.324219 235.488281 190.949219 232.410156 C 192.601562 230.460938 192.824219 229.558594 192.523438 226.78125 C 192 222.277344 190.273438 220.777344 182.925781 218.675781 C 176.101562 216.652344 174.300781 215.300781 175.574219 212.972656 C 177.300781 209.820312 182.398438 209.597656 187.425781 212.449219 C 189.824219 213.875 189.976562 213.875 190.949219 212.597656 C 192.300781 210.796875 192.300781 210.648438 190.273438 208.769531 C 186.375 205.09375 180.675781 204.042969 175.273438 205.917969 Z M 175.273438 205.917969 "/>
<path style=" stroke:none;fill-rule:nonzero;fill:rgb(0%,0%,0%);fill-opacity:1;" d="M 281.324219 205.769531 C 275.925781 207.269531 272.925781 210.722656 271.574219 217.027344 C 269.925781 224.378906 273.074219 231.808594 279 234.886719 C 284.699219 237.8125 294 236.460938 297.898438 232.109375 C 301.351562 228.28125 302.625 219.050781 300.375 213.722656 C 297.601562 206.96875 289.273438 203.441406 281.324219 205.769531 Z M 290.851562 212.074219 C 293.101562 213.648438 294.074219 216.277344 294.148438 220.851562 C 294.148438 225.582031 292.800781 228.65625 290.175781 230.007812 C 287.324219 231.507812 285.074219 231.433594 282.226562 229.632812 C 277.125 226.558594 276.976562 215.675781 282.074219 212.074219 C 284.324219 210.574219 288.675781 210.496094 290.851562 212.074219 Z M 290.851562 212.074219 "/>
<path style=" stroke:none;fill-rule:nonzero;fill:rgb(0%,0%,0%);fill-opacity:1;" d="M 317.324219 205.769531 C 311.925781 207.269531 308.925781 210.722656 307.574219 217.027344 C 305.925781 224.378906 309.074219 231.808594 315 234.886719 C 320.699219 237.8125 330 236.460938 333.898438 232.109375 C 337.351562 228.28125 338.625 219.050781 336.375 213.722656 C 333.601562 206.96875 325.273438 203.441406 317.324219 205.769531 Z M 326.851562 212.074219 C 329.101562 213.648438 330.074219 216.277344 330.148438 220.851562 C 330.148438 225.582031 328.800781 228.65625 326.175781 230.007812 C 323.324219 231.507812 321.074219 231.433594 318.226562 229.632812 C 313.125 226.558594 312.976562 215.675781 318.074219 212.074219 C 320.324219 210.574219 324.675781 210.496094 326.851562 212.074219 Z M 326.851562 212.074219 "/>
<path style=" stroke:none;fill-rule:nonzero;fill:rgb(0%,0%,0%);fill-opacity:1;" d="M 452.851562 205.621094 C 445.050781 207.945312 440.851562 218.226562 443.925781 227.457031 C 446.25 234.511719 455.773438 238.1875 465 235.636719 C 469.574219 234.359375 470.398438 233.386719 469.425781 230.535156 C 468.976562 229.257812 468.523438 228.132812 468.449219 228.132812 C 468.300781 228.132812 467.175781 228.65625 465.824219 229.332031 C 459.75 232.410156 453.074219 230.984375 451.125 226.332031 C 449.023438 221.304688 448.875 221.378906 460.5 221.378906 L 471 221.378906 L 471 218.902344 C 470.925781 215.824219 469.273438 211.246094 467.476562 209.222656 C 464.398438 205.695312 457.875 204.117188 452.851562 205.621094 Z M 462.074219 212.296875 C 463.273438 213.5 464.25 215.226562 464.25 216.050781 C 464.25 217.550781 463.800781 217.625 457.648438 217.625 C 453.976562 217.625 450.824219 217.402344 450.523438 217.175781 C 449.851562 216.425781 452.023438 212.597656 453.898438 211.324219 C 456.523438 209.445312 459.601562 209.820312 462.074219 212.296875 Z M 462.074219 212.296875 "/>
<path style=" stroke:none;fill-rule:nonzero;fill:rgb(0%,0%,0%);fill-opacity:1;" d="M 549.601562 205.621094 C 541.800781 207.945312 537.601562 218.226562 540.675781 227.457031 C 543 234.511719 552.523438 238.1875 561.75 235.636719 C 566.324219 234.359375 567.148438 233.386719 566.175781 230.535156 C 565.726562 229.257812 565.273438 228.132812 565.199219 228.132812 C 565.050781 228.132812 563.925781 228.65625 562.574219 229.332031 C 556.5 232.410156 549.824219 230.984375 547.875 226.332031 C 545.773438 221.304688 545.625 221.378906 557.25 221.378906 L 567.75 221.378906 L 567.75 218.902344 C 567.675781 215.824219 566.023438 211.246094 564.226562 209.222656 C 561.148438 205.695312 554.625 204.117188 549.601562 205.621094 Z M 558.824219 212.296875 C 560.023438 213.5 561 215.226562 561 216.050781 C 561 217.550781 560.550781 217.625 554.398438 217.625 C 550.726562 217.625 547.574219 217.402344 547.273438 217.175781 C 546.601562 216.425781 548.773438 212.597656 550.648438 211.324219 C 553.273438 209.445312 556.351562 209.820312 558.824219 212.296875 Z M 558.824219 212.296875 "/>
<path style=" stroke:none;fill-rule:nonzero;fill:rgb(0%,0%,0%);fill-opacity:1;" d="M 585.824219 206.21875 C 584.476562 206.96875 582.898438 208.320312 582.375 209.296875 C 581.476562 211.097656 581.476562 211.023438 580.949219 208.320312 C 580.425781 205.695312 580.351562 205.621094 576.976562 205.621094 L 573.523438 205.621094 L 574.050781 210.648438 C 574.273438 213.5 574.5 220.402344 574.5 226.03125 L 574.5 236.386719 L 581.101562 236.386719 L 581.398438 226.40625 C 581.699219 215.675781 582.226562 213.800781 585.898438 212.296875 C 587.023438 211.847656 589.199219 211.621094 590.625 211.773438 L 593.324219 212.074219 L 593.101562 208.695312 C 592.875 205.46875 592.726562 205.246094 590.625 205.019531 C 589.425781 204.945312 587.25 205.46875 585.824219 206.21875 Z M 585.824219 206.21875 "/>
<path style=" stroke:none;fill-rule:nonzero;fill:rgb(0%,0%,0%);fill-opacity:1;" d="M 493.5 221.003906 L 493.5 236.386719 L 500.25 236.386719 L 500.25 205.621094 L 493.5 205.621094 Z M 493.5 221.003906 "/>
<path style=" stroke:none;fill-rule:nonzero;fill:rgb(0%,0%,0%);fill-opacity:1;" d="M 505.726562 208.019531 C 506.324219 209.371094 509.25 216.351562 512.324219 223.480469 L 517.875 236.460938 L 521.175781 236.238281 L 524.476562 236.011719 L 531.074219 220.777344 L 537.675781 205.621094 L 530.398438 205.621094 L 526.574219 215 C 524.398438 220.179688 522.375 225.207031 522.074219 226.105469 L 521.398438 227.757812 L 520.574219 225.882812 C 520.125 224.832031 518.101562 219.953125 516.148438 215 L 512.550781 205.996094 L 508.648438 205.769531 L 504.675781 205.542969 Z M 505.726562 208.019531 "/>
<path style=" stroke:none;fill-rule:nonzero;fill:rgb(0%,0%,0%);fill-opacity:1;" d="M 597.675781 210.648438 C 598.875 213.425781 601.726562 220.101562 604.050781 225.429688 L 608.175781 235.035156 L 606.75 237.886719 C 605.25 240.890625 602.851562 242.765625 599.625 243.589844 C 597.824219 244.042969 597.675781 244.34375 598.050781 246.441406 C 598.726562 249.894531 599.398438 250.121094 603.898438 248.394531 C 610.800781 245.84375 611.324219 244.941406 621.824219 220.777344 L 628.425781 205.621094 L 621.148438 205.621094 L 616.875 216.125 C 614.476562 221.902344 612.300781 226.632812 612 226.632812 C 611.773438 226.632812 609.675781 221.980469 607.425781 216.277344 L 603.300781 205.996094 L 599.398438 205.769531 L 595.5 205.542969 Z M 597.675781 210.648438 "/>
<path style=" stroke:none;fill-rule:nonzero;fill:rgb(0%,0%,0%);fill-opacity:1;" d="M 90 337.695312 L 90 342.949219 L 630 342.949219 L 630 332.441406 L 90 332.441406 Z M 90 337.695312 "/>
</g>
</svg>
